/* XPM */
static char * linthesia_xpm[] = {
"32 32 496 2",
"  	c None",
". 	c #3B373B",
"+ 	c #5B585C",
"@ 	c #606064",
"# 	c #616061",
"$ 	c #605D5F",
"% 	c #575759",
"& 	c #535456",
"* 	c #515154",
"= 	c #777777",
"- 	c #ADACAA",
"; 	c #9C9999",
"> 	c #888788",
", 	c #8C8C8C",
"' 	c #7D7D7E",
") 	c #5A5C5C",
"! 	c #585A5C",
"~ 	c #343434",
"{ 	c #5F5E5C",
"] 	c #D9D8D8",
"^ 	c #FFFFFF",
"/ 	c #FDFDFD",
"( 	c #F9F8F9",
"_ 	c #A09E9F",
": 	c #454546",
"< 	c #505051",
"[ 	c #232325",
"} 	c #504F52",
"| 	c #5A595C",
"1 	c #525152",
"2 	c #484548",
"3 	c #38393A",
"4 	c #3D4040",
"5 	c #4E4D4F",
"6 	c #716F72",
"7 	c #7D7C7C",
"8 	c #505050",
"9 	c #464745",
"0 	c #E1E1E0",
"a 	c #FAF9F9",
"b 	c #757374",
"c 	c #444546",
"d 	c #535356",
"e 	c #18171A",
"f 	c #131313",
"g 	c #858485",
"h 	c #F8F7F7",
"i 	c #FCFDFC",
"j 	c #C2C0C1",
"k 	c #3D3B3E",
"l 	c #202123",
"m 	c #4B4C4C",
"n 	c #38383A",
"o 	c #252627",
"p 	c #404342",
"q 	c #7D7D7C",
"r 	c #8C8788",
"s 	c #898787",
"t 	c #29292A",
"u 	c #121316",
"v 	c #0E1113",
"w 	c #151516",
"x 	c #ACA9A9",
"y 	c #9B9899",
"z 	c #393939",
"A 	c #444548",
"B 	c #2C2C31",
"C 	c #000000",
"D 	c #2C2B2B",
"E 	c #C9C9C8",
"F 	c #F3F3F4",
"G 	c #EAE9E9",
"H 	c #555456",
"I 	c #403F41",
"J 	c #312F32",
"K 	c #545453",
"L 	c #8F8C8C",
"M 	c #9C9799",
"N 	c #908D8B",
"O 	c #434241",
"P 	c #1D1D20",
"Q 	c #313133",
"R 	c #4A4C4C",
"S 	c #101113",
"T 	c #5F5F60",
"U 	c #F9F9F9",
"V 	c #D2D1D1",
"W 	c #4B4B4D",
"X 	c #343634",
"Y 	c #444648",
"Z 	c #818180",
"` 	c #F4F4F4",
" .	c #F3F3F3",
"..	c #D6D6D6",
"+.	c #4C4D4F",
"@.	c #37393C",
"#.	c #615E5D",
"$.	c #9B9796",
"%.	c #969393",
"&.	c #7E7B7C",
"*.	c #484645",
"=.	c #9A9999",
"-.	c #EEEEEE",
";.	c #CBC8C9",
">.	c #484545",
",.	c #484A4B",
"'.	c #3E4043",
").	c #1E1D1E",
"!.	c #BFBEBE",
"~.	c #666464",
"{.	c #262827",
"].	c #4B4F51",
"^.	c #212124",
"/.	c #373837",
"(.	c #D7D7D6",
"_.	c #F2F2F2",
":.	c #424244",
"<.	c #2E3031",
"[.	c #3D3E40",
"}.	c #908D8E",
"|.	c #888685",
"1.	c #454443",
"2.	c #A5A4A4",
"3.	c #E5E3E4",
"4.	c #5A595B",
"5.	c #3B3F40",
"6.	c #545458",
"7.	c #787676",
"8.	c #9E9C9D",
"9.	c #2B2A2B",
"0.	c #434649",
"a.	c #4A4D4F",
"b.	c #939391",
"c.	c #434344",
"d.	c #3F3F41",
"e.	c #202225",
"f.	c #2D2E2E",
"g.	c #4A4747",
"h.	c #CAC9C9",
"i.	c #F8F8F7",
"j.	c #787878",
"k.	c #353534",
"l.	c #555858",
"m.	c #232426",
"n.	c #353635",
"o.	c #DBDBDA",
"p.	c #DAD7D9",
"q.	c #424142",
"r.	c #313233",
"s.	c #5C5C5E",
"t.	c #121617",
"u.	c #4B4A4B",
"v.	c #C5C5C4",
"w.	c #8D8C8D",
"x.	c #666667",
"y.	c #131215",
"z.	c #0D0E12",
"A.	c #0F1013",
"B.	c #353434",
"C.	c #C9C7C7",
"D.	c #FFFEFE",
"E.	c #F7F3F5",
"F.	c #A7A6A7",
"G.	c #313033",
"H.	c #4C4D50",
"I.	c #4A484D",
"J.	c #969696",
"K.	c #6F6D6F",
"L.	c #58575A",
"M.	c #3E3E41",
"N.	c #1E1F1E",
"O.	c #ACA8A7",
"P.	c #575353",
"Q.	c #050408",
"R.	c #252628",
"S.	c #424547",
"T.	c #979394",
"U.	c #F5F4F4",
"V.	c #F7F6F7",
"W.	c #FBFCFB",
"X.	c #D8D6D7",
"Y.	c #424144",
"Z.	c #3A3A3A",
"`.	c #606160",
" +	c #08090B",
".+	c #565656",
"++	c #FCFCFC",
"@+	c #A3A2A3",
"#+	c #2D2B2C",
"$+	c #464646",
"%+	c #515455",
"&+	c #161619",
"*+	c #747171",
"=+	c #A9A9A8",
"-+	c #D7D9DA",
";+	c #484647",
">+	c #535455",
",+	c #101418",
"'+	c #585758",
")+	c #F2F1F2",
"!+	c #F8F6F7",
"~+	c #FDFBFC",
"{+	c #666365",
"]+	c #2F2E2F",
"^+	c #656565",
"/+	c #313336",
"(+	c #C7C5C5",
"_+	c #444344",
":+	c #232326",
"<+	c #454849",
"[+	c #464647",
"}+	c #CAC9CA",
"|+	c #B2AFB3",
"1+	c #504C4E",
"2+	c #585855",
"3+	c #313738",
"4+	c #1E1F21",
"5+	c #C5C2C4",
"6+	c #FFFDFE",
"7+	c #F9F8F8",
"8+	c #969395",
"9+	c #28262A",
"0+	c #565658",
"a+	c #575558",
"b+	c #868484",
"c+	c #6F6E70",
"d+	c #191A1B",
"e+	c #1C1C1C",
"f+	c #0C0C0C",
"g+	c #868487",
"h+	c #D7D7D7",
"i+	c #525053",
"j+	c #525051",
"k+	c #4E5153",
"l+	c #8D8B8E",
"m+	c #F7F7F6",
"n+	c #CDCBCC",
"o+	c #343435",
"p+	c #3E3D3D",
"q+	c #68686A",
"r+	c #18191C",
"s+	c #6A6D6D",
"t+	c #A6A4A5",
"u+	c #605F63",
"v+	c #15191C",
"w+	c #5C5B5C",
"x+	c #636062",
"y+	c #4A4749",
"z+	c #626163",
"A+	c #070D0E",
"B+	c #555356",
"C+	c #F9F7F8",
"D+	c #F7F7F7",
"E+	c #FCFBFB",
"F+	c #F1F0F0",
"G+	c #595758",
"H+	c #2C2A2D",
"I+	c #6A686B",
"J+	c #2F2E32",
"K+	c #2D2E2D",
"L+	c #EAEAE9",
"M+	c #726E71",
"N+	c #5A5D5A",
"O+	c #262A2D",
"P+	c #2D2C2E",
"Q+	c #D3D0D2",
"R+	c #7E7E7E",
"S+	c #3D3B3D",
"T+	c #646566",
"U+	c #2D2F33",
"V+	c #CBCBCC",
"W+	c #FEFEFD",
"X+	c #FBFAFA",
"Y+	c #838384",
"Z+	c #222224",
"`+	c #4C4C4E",
" @	c #545553",
".@	c #B5B5B2",
"+@	c #D3D3D3",
"@@	c #D8D6D8",
"#@	c #595856",
"$@	c #505152",
"%@	c #414346",
"&@	c #050507",
"*@	c #9E9EA0",
"=@	c #605F61",
"-@	c #484B4C",
";@	c #929193",
">@	c #F7F5F6",
",@	c #FAFAFA",
"'@	c #C1C1C1",
")@	c #1D1C1E",
"!@	c #3D3D3E",
"~@	c #E6E5E4",
"{@	c #F3F3F2",
"]@	c #D5D6D6",
"^@	c #EBEAEB",
"/@	c #575957",
"(@	c #000001",
"_@	c #737174",
":@	c #CECDCD",
"<@	c #3B3A3B",
"[@	c #606363",
"}@	c #010507",
"|@	c #5A595A",
"1@	c #F9F9FA",
"2@	c #F7F6F6",
"3@	c #FBFBFA",
"4@	c #E9E9E9",
"5@	c #D5D5D5",
"6@	c #FDFCFD",
"7@	c #696869",
"8@	c #444340",
"9@	c #676769",
"0@	c #13191B",
"a@	c #434145",
"b@	c #EEEDEE",
"c@	c #525153",
"d@	c #404040",
"e@	c #6D6F6F",
"f@	c #1D2122",
"g@	c #2E2F31",
"h@	c #DEDFE0",
"i@	c #F6F5F6",
"j@	c #F6F6F6",
"k@	c #ECECEC",
"l@	c #646366",
"m@	c #F6F5F5",
"n@	c #828183",
"o@	c #3D393A",
"p@	c #2C3032",
"q@	c #1D1E1F",
"r@	c #C5C3C5",
"s@	c #706F70",
"t@	c #302F31",
"u@	c #747273",
"v@	c #424546",
"w@	c #0F1113",
"x@	c #E2E1E2",
"y@	c #FEFEFE",
"z@	c #F6F6F5",
"A@	c #FAFAF9",
"B@	c #EEEFEE",
"C@	c #323137",
"D@	c #A19FA0",
"E@	c #353234",
"F@	c #44494B",
"G@	c #969496",
"H@	c #9B979A",
"I@	c #2B292C",
"J@	c #686A69",
"K@	c #58595D",
"L@	c #141315",
"M@	c #989796",
"N@	c #F8F8F8",
"O@	c #EEEDED",
"P@	c #474C4D",
"Q@	c #101218",
"R@	c #B9B6B8",
"S@	c #C5C4C4",
"T@	c #353637",
"U@	c #5F5F63",
"V@	c #5D5D5E",
"W@	c #656467",
"X@	c #C4C3C3",
"Y@	c #2F2F30",
"Z@	c #414143",
"`@	c #646467",
" #	c #636261",
".#	c #EEEEEC",
"+#	c #FCFCFB",
"@#	c #F5F5F5",
"##	c #FDFDFC",
"$#	c #F2F1F1",
"%#	c #7E7D7D",
"&#	c #525455",
"*#	c #00010A",
"=#	c #939296",
"-#	c #DFDFDE",
";#	c #3D3A3B",
">#	c #514F50",
",#	c #717373",
"'#	c #111315",
")#	c #3D3D40",
"!#	c #E8E8E8",
"~#	c #4F4D4F",
"{#	c #0C0E0F",
"]#	c #888986",
"^#	c #F9F8F7",
"/#	c #F4F4F3",
"(#	c #F0F0EF",
"_#	c #7C7779",
":#	c #666564",
"<#	c #616363",
"[#	c #000107",
"}#	c #6C6A6D",
"|#	c #FCFAFA",
"1#	c #5A5959",
"2#	c #434243",
"3#	c #827F81",
"4#	c #292E2F",
"5#	c #1F1F22",
"6#	c #E5E6E6",
"7#	c #949392",
"8#	c #E7E6E7",
"9#	c #FCFCFD",
"0#	c #FAFAF8",
"a#	c #6C6B6D",
"b#	c #595559",
"c#	c #6A6C6C",
"d#	c #070C10",
"e#	c #434245",
"f#	c #F0F0F0",
"g#	c #727272",
"h#	c #28282B",
"i#	c #7E7A7C",
"j#	c #424345",
"k#	c #929293",
"l#	c #F2F0F1",
"m#	c #747473",
"n#	c #4E4B4F",
"o#	c #727277",
"p#	c #1C1E22",
"q#	c #272B2F",
"r#	c #D3D3D4",
"s#	c #919090",
"t#	c #2B282B",
"u#	c #565659",
"v#	c #606365",
"w#	c #595557",
"x#	c #D9D7D8",
"y#	c #EDEDED",
"z#	c #898687",
"A#	c #413D3F",
"B#	c #7C7A7B",
"C#	c #36393C",
"D#	c #101318",
"E#	c #AFB0B2",
"F#	c #BCBBBB",
"G#	c #2A292B",
"H#	c #242428",
"I#	c #595A5A",
"J#	c #EFEFEF",
"K#	c #F3F0F1",
"L#	c #F5F3F4",
"M#	c #EBEBEB",
"N#	c #D4D4D4",
"O#	c #F3F1F2",
"P#	c #A6A3A2",
"Q#	c #3A3A3C",
"R#	c #7F7C7F",
"S#	c #494C4D",
"T#	c #98989B",
"U#	c #E0DDDD",
"V#	c #4D4B4A",
"W#	c #D2D2D1",
"X#	c #FEFBFB",
"Y#	c #F7F8F7",
"Z#	c #F2F0F0",
"`#	c #E6E6E6",
" $	c #CACBCB",
".$	c #EFEDEE",
"+$	c #DCD9DA",
"@$	c #E5E4E4",
"#$	c #B3B2B2",
"$$	c #383536",
"%$	c #6C6A6A",
"&$	c #4D4D4E",
"*$	c #06070B",
"=$	c #0A0C0F",
"-$	c #C8C8C9",
";$	c #DFDDDE",
">$	c #E3E2E2",
",$	c #E5E5E5",
"'$	c #E1E1E1",
")$	c #E2E2E2",
"!$	c #DEDDDE",
"~$	c #D6D5D4",
"{$	c #CCCBCC",
"]$	c #B7B7B7",
"^$	c #BFBDBE",
"/$	c #ABA9AA",
"($	c #B3B3B3",
"_$	c #A1A09F",
":$	c #353333",
"<$	c #535053",
"[$	c #404041",
"}$	c #252727",
"|$	c #AEADAF",
"1$	c #B3B1B2",
"2$	c #ADABAB",
"3$	c #B2B2B2",
"4$	c #B2B3B3",
"5$	c #AEAEAE",
"6$	c #A4A1A2",
"7$	c #757575",
"                                                                ",
"                                                                ",
"    . + @ # $ % & * = - ; > , ' ) ! ~ { ] ^ ^ / ^ ( _ : < [     ",
"    } | 1 2 3 4 5 6 7 8 9 0 ^ a b c d e f g ^ ^ h i ^ j k l     ",
"    & m n o p q r s t u v w x ^ ^ y z A B C D E ^ ^ F ^ G H     ",
"    } I J K L M N O P Q R S C T U ^ V W X Y C C Z ^ ^ `  ...    ",
"    +.@.#.$.%.&.*.=.-.;.>.,.'.C ).!.^ ^ ~.{.].^.C /.(.^ _...    ",
"    :.<.[.}.|.1.2.^ ^ ^ 3.4.5.6.C C 7.^ ^ 8.9.0.a.C C b. ...    ",
"    c.d.e.f.g.h.^ / i.a ^ ^ j.k.l.m.C n.o.^ p.q.r.s.t.C u.v.    ",
"    w.x.y.z.A.B.C.^ D.E.h ^ ^ F.G.H.I.C C J.^ ^ K.o L.M.C N.    ",
"    O.P.Q.R.S.C C T.^ ^ U.V.W.^ X.Y.Z.`. +C .+++^ @+#+$+%+&+    ",
"    *+=+-+_ ;+>+,+C '+)+^ h !+U ^ ~+{+]+^+/+C ).(+^ 0 _+:+<+    ",
"    [+}+^ ^ |+1+2+3+C 4+5+^ 6+!+7+^ ^ 8+9+0+a+C C b+^ ^ c+d+    ",
"    e+f+g+^ ^ h+i+j+k+C C l+^ ^ m+7+D.^ n+o+p+q+r+C s+^  .t+    ",
"    u+v+C w+( ^ )+x+y+z+A+C B+_.^ C+D+E+^ F+G+H+I+J+K+L+ ...    ",
"    M+N+O+C P+Q+^ ^ R+S+T+U+C [ V+^ W+h X+^ ^ Y+Z+`+ @.@ .+@    ",
"    @@#@$@%@C &@*@^ ^ 2.n =@-@C C ;@^ ^ >@,@D.^ '@)@!@~@{@]@    ",
"    ^ ^@B+u./@(@C _@^ ^ :@<@< [@}@C |@1@^ 2@X+3@^ ] !.^ 4@5@    ",
"    ^ ^ 6@7@8@9@0@C a@^@^ b@c@d@e@f@C g@h@^ i@X+a ^ ^ j@k@+@    ",
"    l@m@^ ^ n@o@6 p@C q@r@^ ^ s@t@u@v@C w@x@y@z@A@++h D+B@..    ",
"    e+C@] ^ ^ D@E@K.F@C C G@^ ^ H@I@J@K@L@M@^ W+m+N@/ ,@O@..    ",
"    P@f+Q@R@^ ^ S@T@U@V@C C W@^ ^ X@Y@Z@`@ #.#^ +#2@@###$#5@    ",
"    %#&#C *#=#^ ^ -#;#>#,#'#C )#b@^ !#~#{#]#W+++3@E+^#/#(#..    ",
"    _#:#<#[#C }#^ ^ |#1#2#3#4#C 5#6#^ ^ 7#8#9###a a X+N@4@+@    ",
"    0#a#b#c#d#C e#f#^ ^ g#h#i#j#C k#^ ^ ^ ^ l#X+++D+N@N@-.+@    ",
"    ^ ^ m#n#o#p#C q#r#^ ^ s#t#u#v#w#x#^ 3@+#a $#!+++D+j@y#..    ",
"    ^ ^ ^ z#A#B#C#C D#E#^ ^ F#G#H#I#J#^ a a ,@U K#L#+#N@M#N#    ",
"    O#^ y@^ P#Q#R#S#C C T#^ ^ U#V#W#X#++++7+N@Y#U K#Z#N@`# $    ",
"    .$+$@$`#`##$$$%$&$*$=$-$`#`#`#`#;$] >$,$'$'$'$)$!$~${$]$    ",
"    , ^$/$($($($_$:$<$[$}$1#|$($($($($1$2$#$($3$3$3$4$5$6$7$    ",
"                                                                ",
"                                                                "};
