<?xml version="1.0" encoding="UTF-8" standalone="no"?>
<svg
   version="1.1"
   x="0px"
   y="0px"
   viewBox="0 0 256 256"
   enable-background="new 0 0 256 256"
   xml:space="preserve"
   id="svg5"
   sodipodi:docname="linux.svg"
   inkscape:version="1.3.2 (091e20ef0f, 2023-11-25)"
   xmlns:inkscape="http://www.inkscape.org/namespaces/inkscape"
   xmlns:sodipodi="http://sodipodi.sourceforge.net/DTD/sodipodi-0.dtd"
   xmlns="http://www.w3.org/2000/svg"
   xmlns:svg="http://www.w3.org/2000/svg"><defs
   id="defs5" /><sodipodi:namedview
   id="namedview5"
   pagecolor="#ffffff"
   bordercolor="#000000"
   borderopacity="0.25"
   inkscape:showpageshadow="2"
   inkscape:pageopacity="0.0"
   inkscape:pagecheckerboard="0"
   inkscape:deskcolor="#d1d1d1"
   inkscape:zoom="3.1445312"
   inkscape:cx="128"
   inkscape:cy="128"
   inkscape:window-width="1920"
   inkscape:window-height="1011"
   inkscape:window-x="0"
   inkscape:window-y="0"
   inkscape:window-maximized="1"
   inkscape:current-layer="svg5" />
<g
   id="g5"
   style="fill:#ffffff"><g
     id="g4"
     style="fill:#ffffff"><g
       id="g3"
       style="fill:#ffffff"><path
         fill="#000000"
         d="M116.8,10.8c-5.4,1-12.4,4.7-15.1,7.9c-7.7,9.1-9.4,22.1-6.8,51.5C96.7,90,96.2,91.7,83.5,107c-10.6,12.7-11.3,13.8-15.9,26.1c-2.2,5.9-5.2,13.2-6.8,16.3c-4.6,9.2-6.6,17.7-5,21.7c0.3,0.9,1.6,1.4,4.3,1.4c7.7,0,13.7,5.1,22.3,19.3c2.7,4.2,6.7,10.5,9.1,14c8.1,12.1,10.7,20.8,7.7,26.6c-3.3,6.4-10.7,7.4-26.4,3.8c-5.1-1.2-14.4-3.3-20.5-4.6c-10.8-2.3-16.6-4.2-18.9-6.1c-0.9-0.8-0.9-1.5,0.5-4.3c2.1-3.9,2.2-10.7,0.4-18.7c-1.9-8.5-1.9-8.6,2.3-8.6c5.9,0,13.3-2.5,15.7-5.3c2.1-2.6,2.7-6.1,1.4-8.3c-0.6-0.9-0.9-0.5-1.3,1.5c-1,4.6-5.5,7.2-15.4,8.8c-8.6,1.5-9.1,2.2-6.8,13.5c1.5,8,1.5,8-0.3,13.3c-2.4,6.6-2.4,8.3,0.1,10.5c2.8,2.7,7,4.2,20,7.1c6.5,1.5,15.8,4.2,20.8,6.2c6.8,2.7,10.5,3.6,15.4,3.9l6.4,0.3l6-4.1c9.7-6.6,12.2-7.4,24.4-7.9c13.4-0.5,35.1,1.3,35.1,2.9c0,2.3,5.9,7.1,10.4,8.5c10,2.9,15.6,1.2,26.4-8.6c6.5-5.8,10.1-8.2,17.8-12.1c10.7-5.2,15.6-9.3,15.6-13c0-3.4-1.9-5.6-8.1-9.7c-6.2-3.9-7.3-5.3-9.3-11.6c-1.8-5.5-2.7-6.2-3.4-2.7c-0.7,3.7,0.2,8.6,2.4,12.3c1.5,2.7,2.7,3.6,7.1,5c14.8,5,11.1,10.7-12,18.9c-4.1,1.5-8.4,3.8-11,5.9c-9.4,7.6-11,8.6-16.3,8.9c-10.4,0.8-13.1-3.8-11.7-20.4c0.6-6.8,0.4-11.4-0.4-17.6c-1.8-12.3-1.6-17.5,0.5-20.3c2.7-3.3,4.6-2.8,7.3,1.8c4,7.1,6.1,8.8,10.6,8.8c6,0,11.8-3.3,16.8-9.5c2.3-2.8,4.8-5.6,5.6-6c1.3-0.7,1.5-2.1,1.5-8.7c0-10.4-1.2-17.1-4.8-27.9c-4-12-7.5-18.5-16.3-29.6C168,85,166.4,81.1,164.3,55.4c-1.4-16.7-2.3-21.7-4.9-27C152.8,15.1,134.2,7.4,116.8,10.8z M145.8,25.6c2.1,2.2,2,2.5-3.3,4.4c-3.3,1.2-3.6,1.2-3-0.3c0.3-0.8,0.8-2.5,1-3.9C141.1,23,143.3,22.9,145.8,25.6z M142.8,44.7c1.5,0.9,5,9.2,5.5,13.1c0.6,4.8-1.2,8.6-4,8.6c-1.5,0-1.7-0.6-1.7-5c0-7-1.3-9.1-5.8-9.4c-3.3-0.3-3.7,0-5.3,2.6c-3.6,5.9-1.4,10.4,6.7,13.4c2.7,1,6.2,2.7,7.7,3.5c2.5,1.5,2.7,1.8,1.7,4.3c-1.4,4.1-0.4,12,2,16.8c1.2,2.3,3.6,6.9,5.4,10.4c1.7,3.3,3.4,7.5,3.7,9.4c0.3,1.8,1.8,5.1,3.3,7.5c5,7.6,8.1,19.8,10.3,40c0.4,4.3,0.8,5,2.5,5.5c3.3,0.9,6.9-1.7,8.6-6.1c3.7-9.6-1.6-30.1-10.8-41.7c-3.7-4.6-1.5-3.9,2.7,0.9c4.1,4.8,8.7,14.1,10.4,20.8c1.3,5.5,1.4,17.4,0.1,20.6c-1.1,2.7-0.5,3.8,3.8,6.4c2.6,1.7,2.8,2.1,1.2,1.7c-1.2-0.3-4.4-0.8-7.3-1c-6.2-0.5-10.4,1.2-12.4,5.2c-0.9,1.6-2.1,2.7-3.4,2.8c-4.6,0.5-5.1,3-6.8,31.8c-1,18.1-2.1,24.6-3.9,22.8c-1-1-0.4-6.3,1.4-12.4c2-6.6,1.8-12.1-0.4-12.1c-0.6,0-2.7,1.9-4.7,4.3c-4.3,5.1-11.4,8.8-20.5,10.8c-8.9,1.9-15.1,1.2-20.3-2.1c-3.4-2.3-7.1-3.5-7.1-2.3c0,0.2,0.8,2.1,1.7,4.4c1.8,4.1,2.2,9.4,0.9,11.4c-0.4,0.8-0.9-0.3-1.2-3.2c-0.6-4.7-2.7-9.6-6.2-13.6l-2.2-2.7l3-2.2c5.6-4.2,5.5-9.4-0.1-15.2c-1.8-1.8-7.6-6.4-13-10.3c-15.8-11.4-20.2-17.5-20.1-28.6c0-3.7,0.4-6.7,1-7.3c0.8-0.8,1,0.3,1,4.8c0,7.3,1.4,12.1,4.1,14.3c2.7,2.1,3.6,1.5,3.6-2.9c0-4.9,3.7-22.2,5.9-28.1c1-2.6,3.3-7.3,5.2-10.4c3-5,3.4-6.3,3.4-10.9c0-4.3,0.5-6.2,3.2-11.4c1.7-3.3,3.8-8.6,4.5-11.6l1.4-5.5l4.1,6.5c7.1,11.5,9.4,11.4,28.2-1.3c4-2.7,7.5-5.3,7.8-5.8c1.1-1.8-3.3-0.7-10.9,2.7c-9.9,4.4-16.3,5-19.8,1.6c-3.1-2.9-2.8-3.3,1.5-2.9c2,0.3,6.2-0.2,9.4-0.9c5.7-1.4,19.2-7,18.5-7.8c-0.3-0.2-4.6,1-9.8,2.7c-14.9,4.9-23.7,4.3-28.6-1.9c-3.5-4.4-2-7.5,7-14.3c2.7-2,3.2-2.9,3.2-5.6c0-4.5-2-7-5.5-7c-1.5,0-3.2,0.4-3.8,1c-1.5,1.5-1.2,5.7,0.8,8.9c2.2,3.6,1.9,5.1-0.7,3.3c-2.8-2-4-7.3-2.8-12.7c2.7-13.3,13.7-10.9,15.1,3.4c0.4,4.1,0.7,4.6,2.4,4.6c1,0,3.1,0.3,4.4,0.5l2.6,0.5l0.7-5c0.8-6.4,2.2-9.8,5.2-12.1c2.1-1.6,3-1.8,7.1-1.3C139.9,44,142.3,44.5,142.8,44.7z M139.4,54.9c0.8,0.7,1.4,2,1.4,2.7c0,1.1-0.4,0.9-1.7-0.7C136.6,53.8,136.9,52.2,139.4,54.9z M109.1,58.6c-0.1,2.5-0.9,1.5-2.1-2.5c-0.6-1.9-0.5-2,0.8-0.9C108.5,55.7,109.1,57.3,109.1,58.6z M160.7,83.5c4.4,2.9,4.4,2.8,3.2,5.1c-0.9,1.5-1.1,1.5-3.4,0.3c-3.3-1.7-6.8-8.1-4.4-8.1C156.5,80.9,158.6,82.1,160.7,83.5z M80,124c0,1.5-3.1,5.4-3.8,4.7c-0.7-0.6,2.3-6.7,3.2-6.2C79.8,122.7,80,123.4,80,124z"
         id="path1"
         style="fill:#ffffff" /><path
         fill="#000000"
         d="M111.1,64.4c-1.5,0.5-1.4,2,0.1,2c0.7,0,1.4-0.6,1.7-1.3C113.4,63.8,113,63.6,111.1,64.4z"
         id="path2"
         style="fill:#ffffff" /><path
         fill="#000000"
         d="M122.4,64.6c0.3,0.4,1.3,0.9,2.2,0.9c0.9,0,1.6-0.4,1.6-0.9c0-0.5-1-0.9-2.2-0.9C122.8,63.8,122.1,64.1,122.4,64.6z"
         id="path3"
         style="fill:#ffffff" /></g></g></g>
</svg>
