<svg width="2044" height="539" viewBox="0 0 2044 539" fill="none" xmlns="http://www.w3.org/2000/svg">
<path fill-rule="evenodd" clip-rule="evenodd" d="M246.3 247.2V161.1H300.4V323L246.3 247.2ZM166.1 291.2V377.1H112V215.4L166.1 291.2ZM384.9 377.1H331V161.5H384.9V242.3H465.8V296.2H384.9V377.1ZM637 376.9H604.3C568.233 376.9 550.2 359.067 550.2 323.4V215.2C550.2 179.533 568.1 161.7 603.9 161.7H637V215.2L603.9 215.1L603.8 323.2H637V376.9ZM890.3 377.1H836.4V161.4H890.3V377.1ZM958 215.3L904.1 215.6V161.7H958V215.3ZM823.3 215.3L769.4 215.6V161.7H823.3V215.3ZM1176.9 377.2H1123V161.6H1176.9V377.2ZM1042.4 377.2H988.5V161.6H1042.4V377.2ZM1109.8 296L1055.9 296.1V242.4H1109.8V296ZM1261.6 377.2H1207.7V161.6H1261.6V242.4H1342.5V296.3H1261.6V377.2ZM1396.2 377.2H1275.1V323.3H1396.2V377.2ZM1396.2 215.5H1275.1V161.6H1396.2V215.5ZM1426.9 296.2H1480.4V323.3H1514.3V377.2H1453.6C1435.8 377.2 1426.9 368.233 1426.9 350.3V296.2ZM1561.8 323.1L1448.2 255.1C1433.87 246.433 1426.77 233.233 1426.9 215.5V188.4C1426.9 170.267 1435.93 161.2 1454 161.2H1513.9V215.3L1480.8 215.1L1593.5 283C1608.17 291.8 1615.4 305.167 1615.2 323.1V350.2C1615.2 368 1606.37 376.9 1588.7 376.9H1527.6V323.1H1561.8ZM1615.7 242.4L1561.8 242.6V215.3H1527.8V161.4H1588.2C1606.4 161.4 1615.5 170.4 1615.5 188.4L1615.7 242.4ZM1716.8 377.1H1662.9V161.5H1716.8V377.1ZM1797.5 377.1H1743.6L1801.2 193.1L1841.6 329.4H1812.5L1797.5 377.1ZM1931.9 377.1H1878L1810.3 161.5H1864.2L1931.9 377.1Z" fill="white"/>
<g filter="url(#filter0_d_412_472)">
<path fill-rule="evenodd" clip-rule="evenodd" d="M112.2 161.4H166.1L300.7 350.5L300.9 377.1H247L112 188.1L112.2 161.4ZM519.7 377H398.6V323.1H519.7V377ZM519.7 215.3H398.6V161.4H519.7V215.3ZM685.3 377H651.3V323.2H685.3V215.1H651.3V161.2H685.3C721.167 161.2 739.1 179.067 739.1 214.8V323.6C739.1 359.2 721.167 377 685.3 377Z" fill="url(#paint0_linear_412_472)"/>
</g>
<defs>
<filter id="filter0_d_412_472" x="12" y="61.2" width="827.1" height="415.9" filterUnits="userSpaceOnUse" color-interpolation-filters="sRGB">
<feFlood flood-opacity="0" result="BackgroundImageFix"/>
<feColorMatrix in="SourceAlpha" type="matrix" values="0 0 0 0 0 0 0 0 0 0 0 0 0 0 0 0 0 0 127 0" result="hardAlpha"/>
<feOffset/>
<feGaussianBlur stdDeviation="50"/>
<feComposite in2="hardAlpha" operator="out"/>
<feColorMatrix type="matrix" values="0 0 0 0 0.627451 0 0 0 0 0.317647 0 0 0 0 1 0 0 0 1 0"/>
<feBlend mode="normal" in2="BackgroundImageFix" result="effect1_dropShadow_412_472"/>
<feBlend mode="normal" in="SourceGraphic" in2="effect1_dropShadow_412_472" result="shape"/>
</filter>
<linearGradient id="paint0_linear_412_472" x1="425.55" y1="161.2" x2="425.55" y2="377.1" gradientUnits="userSpaceOnUse">
<stop offset="0.325" stop-color="#A051FF"/>
<stop offset="1" stop-color="#EB00FF"/>
</linearGradient>
</defs>
</svg>
